<?xml version="1.0" encoding="UTF-8"?>
<svg id="svg" width="400" height="400" version="1.1" viewBox="0 0 400 400" xmlns="http://www.w3.org/2000/svg" xmlns:cc="http://creativecommons.org/ns#" xmlns:dc="http://purl.org/dc/elements/1.1/" xmlns:rdf="http://www.w3.org/1999/02/22-rdf-syntax-ns#">
 <metadata>
  <rdf:RDF>
   <cc:Work rdf:about="">
    <dc:format>image/svg+xml</dc:format>
    <dc:type rdf:resource="http://purl.org/dc/dcmitype/StillImage"/>
    <dc:title/>
   </cc:Work>
  </rdf:RDF>
 </metadata>
 <g id="svgg" fill-rule="evenodd">
  <path d="m186 77c-8.5 4.5-18 9.7-24 17-8.2 5.6-14 14-18 23-5 7.7-7 17-9.3 26-4 8.2-7.4 17-8 26-1.6 10-3.8 21-4.3 31-0.2 6-0.072 14 1.5 21 1.7 9.4 2.1 19 5.4 28 3.5 9.2 5.7 19 9.7 28 3.1 9.5 10 18 17 25 7.7 7.4 14 17 24 21 6.8 7.8 20 13 28 5 9.9-7.3 7.7-24-2.9-29-9.2-6-18-13-25-21-5.7-5.9-15-18-11-24 10-3 21-3.8 31-5.9 8.4-1.3 16-3.8 23-9.2 9.7-8.5 19-17 29-25 7.1-7.1 15-13 22-20 7.1-7 12-16 15-26 2.1-9.5 3.8-19 5.7-29 2.8-10-1.6-21-5.8-31-7.4-8.4-15-18-26-21-13-5-26-8.9-40-8.1-13-0.11-26-0.34-38 0.024m10 35c8.5-0.17 17 0.45 25-0.3 8.9 0.23 17 0.1 26 4.1 10 2.4 18 13 13 23-2.8 8.5-1.5 19-7.6 26-5.9 6.5-13 12-19 18-7.9 6.9-16 14-24 21-5.5 7.4-15 8.6-24 11-8.3 0.46-17 2.6-25 4.6-2.1-3.3-2.7-13-1.9-18-0.68-7.8 2.6-16 3-24 0.62-10 6.2-19 8.2-29 3.1-9.8 6.6-20 15-27 3.2-3 7.3-9.6 12-8.7" opacity="0"/>
  <path d="m199 4.8c-55 31-110 63-166 95-3.1 3.8-0.4 12-1.3 18-0.82 59-1.2 118-0.46 177 6.6 6.3 17 9.9 24 15 47 27 94 55 141 82 7.6-0.28 14-7.5 21-10 49-29 99-56 148-85 0.85-26 1-53 1.5-79-0.098-39 0.34-77-0.89-116-55-32-110-64-165-96l-1.6-0.36-1.6 0.36m38 73c13 2.5 27 5.9 38 14 10 9.4 20 20 21 34 0.87 14-4.4 29-6.9 43-5.8 20-25 31-38 45-14 9.4-24 26-42 31-13 4.3-28 3.8-42 8.8 4 17 17 29 31 39 14 4.9 24 25 9 35-14 9.2-27-5.7-38-13-14-13-29-27-34-46-6.4-18-11-36-13-54-2.4-17 2.2-34 4.3-51 3.6-14 9.3-27 14-41 6.2-15 17-26 29-36 11-10 26-11 41-10 8.7 0.12 17-0.27 26 0.58m-46 37c-10 7.9-18 19-21 31-4.2 14-9.3 27-10 41-1.9 9.9-2.9 23 0.59 31 14-4.4 29-3.5 43-9.6 17-15 36-30 52-46 2.3-13 12-30 2.6-41-10-10-26-11-40-10-8.6 1.5-20-3.3-27 2.6"/>
 </g>
</svg>
